<svg width="51" height="50" viewBox="0 0 51 50" fill="none" xmlns="http://www.w3.org/2000/svg">
<path d="M25.009 6.64865C25.0628 6.61874 25.1301 6.59999 25.2047 6.59999C25.2793 6.59999 25.3466 6.61874 25.4004 6.64865C25.4469 6.67448 25.5083 6.72169 25.57 6.82668L46.8266 42.9933C46.9371 43.1814 46.9349 43.3783 46.8332 43.5617C46.7822 43.6536 46.7184 43.7143 46.6636 43.7483C46.6179 43.7766 46.5591 43.8 46.4613 43.8H3.94813C3.85031 43.8 3.79144 43.7766 3.7458 43.7483C3.69095 43.7143 3.62718 43.6536 3.57619 43.5617C3.47449 43.3783 3.47227 43.1814 3.58282 42.9933L24.8394 6.82668C24.9011 6.72169 24.9625 6.67448 25.009 6.64865ZM28.2426 5.2559C26.8666 2.91469 23.5428 2.91469 22.1668 5.2559L0.910242 41.4226C-0.506559 43.8332 1.19437 46.9 3.94813 46.9H46.4613C49.215 46.9 50.9159 43.8332 49.4991 41.4226L28.2426 5.2559Z" fill="black"/>
<path d="M22.1047 37.6C22.1047 35.8879 23.4926 34.5 25.2047 34.5C26.9168 34.5 28.3047 35.8879 28.3047 37.6C28.3047 39.3121 26.9168 40.7 25.2047 40.7C23.4926 40.7 22.1047 39.3121 22.1047 37.6Z" fill="black"/>
<path d="M22.4084 18.9846C22.2432 17.3331 23.5401 15.9 25.1999 15.9C26.8597 15.9 28.1566 17.3331 27.9914 18.9846L26.9041 29.8577C26.8166 30.7332 26.0798 31.4 25.1999 31.4C24.32 31.4 23.5832 30.7332 23.4957 29.8577L22.4084 18.9846Z" fill="black"/>
</svg>
