<svg width="50" height="51" viewBox="0 0 50 51" fill="none" xmlns="http://www.w3.org/2000/svg">
<path d="M34.4401 17.4427C38.1013 13.7815 38.1013 7.8456 34.4401 4.18443C30.7789 0.523269 24.843 0.52327 21.1818 4.18443L3.50417 21.8621C-0.15699 25.5233 -0.15699 31.4592 3.50417 35.1204C6.70769 38.3239 11.6528 38.7243 15.2917 36.3217C15.8116 35.9784 16.3048 35.578 16.7624 35.1204L34.4401 17.4427ZM14.3957 15.39L23.3916 6.39414C25.8323 3.95337 29.7896 3.95337 32.2304 6.39414C34.6712 8.83492 34.6712 12.7922 32.2304 15.233L23.2346 24.2288L14.3957 15.39Z" fill="white"/>
<path d="M37.5 25.6803C44.4036 25.6803 50 31.2767 50 38.1803C50 45.0839 44.4036 50.6803 37.5 50.6803C30.5965 50.6803 25 45.0839 25 38.1803C25 31.2767 30.5965 25.6803 37.5 25.6803ZM35.9375 28.9349C31.5036 29.6788 28.125 33.535 28.125 38.1803C28.125 42.8256 31.5036 46.6818 35.9375 47.4257V28.9349ZM39.0625 47.4257C43.4965 46.6818 46.875 42.8256 46.875 38.1803C46.875 33.535 43.4965 29.6788 39.0625 28.9349V47.4257Z" fill="white"/>
</svg>
