<svg width="50" height="51" viewBox="0 0 50 51" fill="none" xmlns="http://www.w3.org/2000/svg">
<path d="M20.1501 3.89999H29.4501C30.3061 3.89999 31.0001 4.59395 31.0001 5.44999V8.54999H18.6001V5.44999C18.6001 4.59395 19.2941 3.89999 20.1501 3.89999ZM34.1001 8.54999V5.44999C34.1001 2.88186 32.0182 0.799988 29.4501 0.799988H20.1501C17.582 0.799988 15.5001 2.88186 15.5001 5.44999V8.54999H7.76763C7.75709 8.54988 7.74654 8.54988 7.73596 8.54999H4.6501C3.79406 8.54999 3.1001 9.24395 3.1001 10.1C3.1001 10.956 3.79406 11.65 4.6501 11.65H6.31915L8.9627 44.6944C9.22047 47.9166 11.9105 50.4 15.143 50.4H34.4572C37.6897 50.4 40.3797 47.9165 40.6375 44.6944L43.2811 11.65H44.9501C45.8061 11.65 46.5001 10.956 46.5001 10.1C46.5001 9.24395 45.8061 8.54999 44.9501 8.54999H41.8642C41.8537 8.54988 41.8431 8.54988 41.8326 8.54999H34.1001ZM40.1711 11.65L37.5474 44.4472C37.4185 46.0583 36.0735 47.3 34.4572 47.3H15.143C13.5267 47.3 12.1817 46.0583 12.0528 44.4472L9.42905 11.65H40.1711ZM16.9591 14.7527C17.8136 14.7024 18.5472 15.3544 18.5974 16.209L20.1474 42.559C20.1977 43.4135 19.5457 44.147 18.6911 44.1973C17.8366 44.2476 17.103 43.5956 17.0528 42.741L15.5028 16.391C15.4525 15.5364 16.1045 14.8029 16.9591 14.7527ZM32.6411 14.7527C33.4957 14.8029 34.1477 15.5364 34.0974 16.391L32.5474 42.741C32.4972 43.5956 31.7636 44.2476 30.9091 44.1973C30.0545 44.147 29.4025 43.4135 29.4528 42.559L31.0028 16.209C31.053 15.3544 31.7866 14.7024 32.6411 14.7527ZM24.8001 14.75C25.6561 14.75 26.3501 15.4439 26.3501 16.3V42.65C26.3501 43.506 25.6561 44.2 24.8001 44.2C23.9441 44.2 23.2501 43.506 23.2501 42.65V16.3C23.2501 15.4439 23.9441 14.75 24.8001 14.75Z" fill="black"/>
</svg>
