<svg width="50" height="50" viewBox="0 0 50 50" fill="none" xmlns="http://www.w3.org/2000/svg">
<path d="M4.60785 28.125C8.44488 33.8777 14.933 40.2231 25 46.875C35.067 40.2231 41.5551 33.8777 45.3922 28.125H37.5C36.8611 28.125 36.2865 27.736 36.0493 27.1428L31.4967 15.7615L26.5024 33.2418C26.3188 33.8842 25.7471 34.3388 25.0798 34.373C24.4125 34.4071 23.7974 34.0132 23.5493 33.3928L18.4024 20.5257L13.8001 27.4292C13.5103 27.8639 13.0224 28.125 12.5 28.125H4.60785Z" fill="white"/>
<path d="M2.74731 25C-7.5824 5.25116 13.7817 -6.2484 24.451 3.57213C24.6373 3.74365 24.8204 3.92167 25 4.10626C25.1796 3.92168 25.3627 3.74367 25.549 3.57216C36.2183 -6.24842 57.5824 5.25115 47.2527 25H38.5579L32.7007 10.3572C32.4526 9.73684 31.8375 9.34291 31.1702 9.37704C30.5029 9.41117 29.9312 9.86581 29.7476 10.5082L24.7533 27.9885L20.2007 16.6072C19.9852 16.0685 19.4889 15.6935 18.9118 15.6334C18.3347 15.5733 17.7718 15.838 17.4499 16.3208L11.6638 25H2.74731Z" fill="white"/>
</svg>
