<svg width="50" height="50" viewBox="0 0 50 50" fill="none" xmlns="http://www.w3.org/2000/svg">
<g clip-path="url(#clip0_254_533)">
<path d="M25.0004 8.58781L22.7598 6.28468C17.5004 0.878434 7.85663 2.74406 4.37538 9.54093C2.86913 12.4847 2.43788 16.6347 4.71288 21.8753H1.34413C-5.30587 4.07219 14.3598 -5.71844 24.4504 3.57218C24.6379 3.74406 24.8223 3.92218 25.0004 4.10656C25.1767 3.92235 25.3602 3.74513 25.5504 3.57531C35.6441 -5.71844 55.3066 4.07219 48.6566 21.8753H45.2879C47.5629 16.6347 47.1316 12.4847 45.6254 9.54093C42.1441 2.74406 32.5004 0.875309 27.241 6.28156L25.0004 8.58781ZM6.91288 31.2503H11.0223C14.3535 34.9472 18.9066 38.9316 25.0004 43.1097C31.091 38.9316 35.6473 34.9472 38.9785 31.2503H43.0879C39.1348 36.1441 33.2754 41.4066 25.0004 46.8753C16.7254 41.4066 10.866 36.1441 6.91288 31.2503Z" fill="black"/>
<path d="M32.7 10.3563C32.5788 10.0538 32.366 9.79673 32.0914 9.62114C31.8168 9.44555 31.4942 9.36022 31.1687 9.3771C30.8432 9.39397 30.5311 9.51221 30.2762 9.71526C30.0212 9.91831 29.8362 10.196 29.7469 10.5095L24.7531 27.9876L20.2 16.6063C20.094 16.3423 19.9178 16.1123 19.6906 15.941C19.4635 15.7697 19.1938 15.6637 18.9108 15.6345C18.6278 15.6052 18.3422 15.6538 18.0847 15.7749C17.8273 15.8961 17.6078 16.0852 17.45 16.322L11.6625 25.0001H1.5625C1.1481 25.0001 0.750671 25.1647 0.457646 25.4577C0.16462 25.7508 0 26.1482 0 26.5626C0 26.977 0.16462 27.3744 0.457646 27.6674C0.750671 27.9605 1.1481 28.1251 1.5625 28.1251H12.5C12.7573 28.125 13.0106 28.0613 13.2374 27.9397C13.4642 27.8181 13.6574 27.6424 13.8 27.4282L18.4031 20.5251L23.55 33.3938C23.6712 33.6964 23.884 33.9534 24.1586 34.129C24.4332 34.3046 24.7558 34.39 25.0813 34.3731C25.4068 34.3562 25.7189 34.238 25.9738 34.0349C26.2288 33.8319 26.4138 33.5542 26.5031 33.2407L31.4969 15.7626L36.05 27.1438C36.1661 27.4335 36.3662 27.6817 36.6247 27.8566C36.8831 28.0315 37.188 28.125 37.5 28.1251H48.4375C48.8519 28.1251 49.2493 27.9605 49.5424 27.6674C49.8354 27.3744 50 26.977 50 26.5626C50 26.1482 49.8354 25.7508 49.5424 25.4577C49.2493 25.1647 48.8519 25.0001 48.4375 25.0001H38.5563L32.7 10.3563Z" fill="black"/>
</g>
<defs>
<clipPath id="clip0_254_533">
<rect width="50" height="50" fill="white"/>
</clipPath>
</defs>
</svg>
